<?xml version="1.0" encoding="utf-8"?>
<!-- Generator: Adobe Illustrator 27.9.0, SVG Export Plug-In . SVG Version: 6.00 Build 0)  -->
<svg fill="#c0c0c0" version="1.1" id="Layer_1" xmlns="http://www.w3.org/2000/svg" xmlns:xlink="http://www.w3.org/1999/xlink" x="0px" y="0px"
	 viewBox="0 0 1920 1920" style="enable-background:new 0 0 1920 1920;" xml:space="preserve">
<g>
	<path d="M1920,644.9c0,293.8,0,587.5,0,881.3c-0.7,1-1.8,1.9-2.1,3c-25.4,101.7-87.2,150-192.1,150.1c-258.1,0-516.1,0-774.2,0
		c-254.9,0-509.9-0.1-764.8,0.1c-50.9,0-95.7-14.9-133-50.4c-29.7-28.2-44.5-64-53.7-102.8c0-293.8,0-587.5,0-881.3
		c2.8,1.2,5.8,2,8.3,3.7c259.3,172.9,518.5,345.8,777.8,518.7c116.2,77.5,231.4,77.6,347.9,0c231.8-154.4,463.4-309,695.2-463.3
		C1859.3,684,1889.7,664.6,1920,644.9z"/>
	<path d="M0,442.4c0-16.3,0-32.5,0-48.8c3.1-10.7,5.8-21.5,9.3-32.1c25.6-75.9,92.3-121,179.3-121c514.3,0,1028.5,0,1542.8,0
		c5.6,0,11.3,0,16.9,0.3c76.3,4.1,138.8,50.5,162.4,120.8c3.5,10.5,6.2,21.3,9.3,32c0,16.3,0,32.5,0,48.8
		c-12,49.7-36.5,90.4-80.1,119.4c-259,172.2-517.5,345-776.4,517.2c-69.2,46-139.3,45.1-208.5-1C596.7,905.9,338.6,733.6,80.3,561.6
		c-41-27.3-67.8-63.9-77.2-112.6C2.6,446.7,1,444.6,0,442.4z"/>
</g>
</svg>
