<?xml version="1.0" encoding="utf-8"?>
<!-- Generator: Adobe Illustrator 27.9.0, SVG Export Plug-In . SVG Version: 6.00 Build 0)  -->
<svg version="1.1" id="Layer_1" xmlns="http://www.w3.org/2000/svg" xmlns:xlink="http://www.w3.org/1999/xlink" x="0px" y="0px"
	 viewBox="0 0 1920 1920" style="enable-background:new 0 0 1920 1920;" xml:space="preserve">
<g>
	<path d="M960.7,0.2c158.2,0,316.5-0.6,474.7,0.1c238.3,1,430.3,158.6,476,391.2c6.2,31.4,8,64,8.1,96.1
		c0.6,314.9,0.8,629.9,0.2,944.8c-0.4,230.6-146.9,420.1-366.6,473.4c-36.8,8.9-75.6,13.1-113.4,13.3c-319.5,1-638.9,1.6-958.4,0.3
		c-236.3-1-428-160.7-473-392.1c-6-30.7-7.7-62.6-7.7-93.9c-0.5-315.7-0.8-631.4-0.2-947C0.8,246.5,158.2,54.7,392.1,8.5
		c32.8-6.5,67-7.7,100.6-7.9C648.7-0.2,804.7,0.2,960.7,0.2z M974.1,1439.9c269-12.2,478-234.5,465.8-495.3
		c-12.6-267.9-233.8-475.9-494.1-464.7C677.5,491.5,468.4,713.8,480,975.1C491.8,1242.1,714.6,1451.7,974.1,1439.9z M1378.1,442.7
		c-0.2,53.2,41.9,96.1,94.9,96.6c52.7,0.4,95.9-42.3,96.3-95.3c0.4-53.1-42-96.1-95-96.3C1421.1,347.5,1378.4,389.6,1378.1,442.7z"
		/>
	<path d="M961.1,1247.9c-158.7,0.4-288.6-128.2-289.1-286.4c-0.6-159.9,128.4-289.6,288-289.6c158.6,0,287.8,129,288,287.4
		C1248.2,1117.9,1119.4,1247.5,961.1,1247.9z"/>
</g>
</svg>
