<?xml version="1.0" encoding="utf-8"?>
<!-- Generator: Adobe Illustrator 27.9.0, SVG Export Plug-In . SVG Version: 6.00 Build 0)  -->
<svg fill="#E53935" version="1.1" id="Layer_1" xmlns="http://www.w3.org/2000/svg" xmlns:xlink="http://www.w3.org/1999/xlink" x="0px" y="0px"
	 viewBox="0 0 1920 1920" style="enable-background:new 0 0 1920 1920;" xml:space="preserve">
<g>
	<path d="M949.7,1920c-63.7-41.8-127.6-83.2-191-125.5c-13.1-8.8-25.6-12.3-41.7-11.2c-69.2,4.9-138.6,8.1-207.8,12.2
		c-23.5,1.4-38.7-9-49.1-29.8c-31.4-63.2-63.3-126.1-95.9-188.7c-4.5-8.6-12.7-17-21.4-21.5c-62-32.3-124.3-64.1-187.1-94.9
		c-23.1-11.4-33.4-27.5-31.7-53.5c4.6-70.5,8.3-141.1,11.4-211.6c0.4-9.7-2.7-21.1-7.9-29.3C90.7,1108.6,54,1051.3,15.2,995.3
		c-18.1-26.1-17.3-47.6,0.6-73.3c38.8-55.9,75.8-113.2,112.7-170.4c5-7.7,7.8-18.4,7.4-27.6c-3.1-69.3-6.6-138.6-11.6-207.9
		c-2.1-28.9,8.1-46.9,34.3-59.6c61.8-29.9,123-61.2,183.9-93c9.1-4.7,17.8-13.7,22.5-22.8c31.7-60.9,62.4-122.4,93.4-183.7
		c15.3-30.2,25.3-35.6,59.5-33.6c70.5,4.2,141,8.4,211.6,11.8c7.3,0.4,15.9-3,22.2-7.1C810.9,89.6,870,51,928.4,11.3
		c22.2-15.1,41.5-15.1,63.6-0.1c57.9,39.3,116.4,77.7,175.2,115.7c8.1,5.2,19.5,8.2,29.3,7.8c71.8-3.1,143.6-7.2,215.4-11.3
		c22.7-1.3,37.9,8.4,48,28.6c31.9,63.7,63.9,127.3,96.7,190.4c4.5,8.6,12.9,16.9,21.5,21.3c62,32.3,124.6,63.5,187,95.2
		c27.2,13.8,33,25.2,31.1,55.3c-4.4,71.1-8.6,142.3-12,213.5c-0.4,7.9,3.3,17,7.7,23.9c37.7,58.2,75.6,116.3,114.2,173.9
		c15.5,23,16,44.1,0.3,67.3c-38.1,56.4-74.9,113.8-113,170.2c-8.3,12.2-10.9,24.1-10,38.4c4.3,68.6,7.4,137.3,11.9,206
		c1.7,25.1-7.6,41.2-30.2,52.4c-63.3,31.2-126.2,63.3-188.8,95.8c-8.1,4.2-16,12-20.2,20.1c-32.5,62.6-64.6,125.5-95.7,188.8
		c-11.5,23.4-28.3,32.5-54,30.8c-71.7-4.8-143.5-8.7-215.3-12.4c-6.3-0.3-13.8,1.6-19.1,5.1c-66.8,43.7-133.2,87.9-199.7,132
		C964.7,1920,957.2,1920,949.7,1920z M1277.4,1707.5C1277.4,1707.5,1277.4,1707.5,1277.4,1707.5c34.3,2,68.7,3.5,102.9,6.2
		c12.6,1,18.7-3.2,24.3-14.5c28.3-57.7,58-114.8,86.5-172.4c8.1-16.4,19.4-28,36-36.2c56.6-27.8,112.3-57.4,169.2-84.5
		c16-7.7,19.2-16.8,18.1-33.1c-4.4-63.6-7.1-127.3-11.1-190.9c-1.1-17.8,3.5-32.7,13.4-47.4c35.6-52.8,69.9-106.6,105.9-159.2
		c8.7-12.7,7.5-20.8-0.5-32.7c-35.1-51.7-68.7-104.4-103.7-156.1c-11-16.3-16.3-32.8-15-52.6c4.1-62.4,6.5-124.9,11.1-187.2
		c1.3-17.2-2.5-26.6-18.9-34.4c-56.3-26.9-111.5-56.2-167.6-83.7c-17.2-8.4-28.9-20.4-37.3-37.5c-27.3-55.4-56.3-110.1-82.9-165.9
		c-8.1-17.1-17.7-21.5-35.8-20.1c-63,4.7-126.1,7.3-189.1,11.3c-17.8,1.1-32.6-3.7-47.3-13.6c-53.4-35.9-107.6-70.7-160.8-106.8
		c-11.3-7.6-18.8-7-29.6,0.3c-53.3,36-107.4,71-160.8,106.9c-14.7,9.9-29.8,14.3-47.5,13.2c-65.5-4.1-131.1-7.2-196.6-11.5
		c-12.4-0.8-18.7,2.8-24.3,14.2c-28.6,58.3-58.6,115.9-87.4,174.1c-7.9,15.9-19,26.8-34.9,34.7c-58.2,28.8-115.8,58.7-174.1,87.4
		c-10.6,5.2-14.3,11.1-13.5,22.8c4.1,64.9,7.2,129.8,11.4,194.7c1.2,19-3,35.1-13.7,51C167.8,837.3,133.1,891.6,97,944.8
		c-7.7,11.3-7,18.9,0.4,29.7c34,50.2,66.1,101.6,100.9,151.3c16.1,23.1,20.9,46.4,18.7,73.9c-4.7,59.8-6.8,119.8-10.7,179.7
		c-0.8,12.3,2.6,18.7,14.1,24.3c58.4,28.5,116,58.3,174.3,87c16,7.9,26.9,18.9,34.7,34.9c28.2,57.1,57.7,113.6,85.5,170.9
		c6.9,14.2,15.3,17.8,30.2,16.8c64.9-4.3,129.8-8.4,194.7-10.5c13.9-0.5,29.9,4.3,41.8,11.8c54.4,34.3,108,70.1,161.2,106.2
		c12.5,8.5,21.3,9.6,34.4,0.6c52.6-36,105.6-71.4,159.7-105.1c13.4-8.3,31.1-12.8,47-13.1
		C1214.9,1702.4,1246.2,1705.8,1277.4,1707.5z"/>
	<path d="M362,958.8c2.3-331,270.2-598.2,598.9-597.1c331.1,1.1,600.7,272.1,597.2,600.3c-3.5,331-270.8,596.7-598.5,595.3
		C628.6,1555.8,363.8,1289.7,362,958.8z M1478.5,958.9c-0.7-285.4-233.9-518.1-518.7-517.4c-285.5,0.6-518,233.7-517.3,518.5
		c0.7,285.7,233.4,518,518.4,517.4C1246.4,1476.7,1479.2,1243.6,1478.5,958.9z"/>
	<path d="M893.2,1046.4c40.7-38.4,87.5-82.5,134.2-126.6c46.8-44.2,93.2-88.8,140.7-132.1c9-8.2,22.1-14.2,34.2-16.3
		c15.2-2.6,29.9,5.8,34.3,20.3c3.6,11.8,1.4,26.2-1.2,38.8c-1.3,6.3-8.9,11.7-14.3,16.8c-99,93.5-198,187-297.2,280.4
		c-31.1,29.2-49.2,28.6-79.3-2.3c-48.4-49.7-96.8-99.3-145.1-149.1c-5.6-5.8-11.1-12-15.2-18.9c-9-15.2-6-34,6.6-46.4
		c12.6-12.5,31.5-15.6,46.5-6.3c7.3,4.5,13.5,11,19.9,16.9C802,962.5,846.6,1003.5,893.2,1046.4z"/>
</g>
</svg>
