<?xml version="1.0" encoding="utf-8"?>
<!-- Generator: Adobe Illustrator 27.9.0, SVG Export Plug-In . SVG Version: 6.00 Build 0)  -->
<svg fill="#E53935" version="1.1" id="Layer_1" xmlns="http://www.w3.org/2000/svg" xmlns:xlink="http://www.w3.org/1999/xlink" x="0px" y="0px"
	 viewBox="0 0 1920 1920" style="enable-background:new 0 0 1920 1920;" xml:space="preserve">
<g>
	<path d="M1143.1,1741.8c-198.1-2.9-368.4-65.8-515.4-191c-23.6-20.1-33.8-44.4-25.1-74.3c13.9-47.5,70.2-62.7,109.7-29.3
		c49.9,42.1,103.8,77.4,163.4,104.3c382.7,172.6,834.8-69.7,901.5-483.3c56.1-348-163.3-671.1-508.8-742
		c-204.2-41.9-388.5,8.2-549.3,141.3c-19.2,15.9-39.1,27.2-64.6,22.1c-26.9-5.4-45.4-21.7-52.4-48.3c-6.9-26.4,0.3-49.7,21.1-68.1
		c62.1-55,131.2-99.3,207.6-131.4c308.5-129.9,650.7-57.1,881,186.8c268.9,284.8,278.7,741.7,22.1,1037.6
		c-136.8,157.8-309.3,247.8-516.6,271.6c-4.2,0.5-8.4,0.6-12.5,0.8C1182.4,1739.7,1160.1,1740.9,1143.1,1741.8z"/>
	<path d="M1036,744.6c0-59.3-0.6-118.6,0.2-177.9c0.5-35.7,26-62.7,60.2-66.7c30.7-3.5,61.3,16.5,70.4,47.5c2.7,9.1,3,19.2,3,28.9
		c0.2,100.4-0.2,200.9,0.7,301.3c0.1,10.3,5.3,23.1,12.5,30.5c81.2,82.5,163.6,163.9,244.9,246.3c10.9,11,20.9,25.1,25.4,39.7
		c8.9,29-5.3,58.7-30.7,73.5c-25.6,14.9-57.3,12.3-79.2-9.4c-96.6-95.8-193.1-191.6-288-289c-11.6-12-17.8-33.6-18.5-51
		C1034.6,860.5,1036,802.5,1036,744.6z"/>
	<path d="M426.4,892.9c85.8,0,171.6-0.1,257.5,0c44.6,0,75.1,27.1,75.3,66.5c0.3,39.5-30.2,67.4-74.4,67.4
		c-173.7,0.1-347.5,0.1-521.2,0c-44.1,0-74.6-28-74.2-67.6c0.3-39.6,30.6-66.3,75.4-66.3C252,892.8,339.2,892.9,426.4,892.9z"/>
	<path d="M334.2,713.8c-89.3,0-178.6,0.3-267.9-0.2c-30.2-0.2-54.5-18.9-63.1-46C-5.2,641.1,3,610.1,26.4,595
		c12.8-8.2,29.6-14.3,44.6-14.4c175.8-1,351.6-0.8,527.3-0.5c41.9,0.1,72.7,30.4,71.8,68.4c-0.9,37.9-30.5,65.1-72.2,65.3
		C510,714.1,422.1,713.9,334.2,713.8C334.2,713.9,334.2,713.9,334.2,713.8z"/>
	<path d="M513.8,1205.9c88.6,0,177.2-0.3,265.8,0.2c41,0.2,69.3,29.3,68.4,68.3c-0.8,38-29.9,65-72.1,65.3
		c-57.9,0.5-115.8,0.1-173.7,0.1c-116.5,0-233,0.2-349.5-0.1c-50.7-0.2-83.4-39.4-71.6-84.5c8-30.8,33.1-49.1,69-49.2
		C338.1,1205.7,426,1205.9,513.8,1205.9z"/>
</g>
</svg>
