<?xml version="1.0" encoding="utf-8"?>
<!-- Generator: Adobe Illustrator 27.9.0, SVG Export Plug-In . SVG Version: 6.00 Build 0)  -->
<svg version="1.1" id="Layer_1" xmlns="http://www.w3.org/2000/svg" xmlns:xlink="http://www.w3.org/1999/xlink" x="0px" y="0px"
	 viewBox="0 0 1920 1920" style="enable-background:new 0 0 1920 1920;" xml:space="preserve">
<g>
	<path d="M1920,198.7c-9.9,46.9-20.4,93.6-29.7,140.6C1828,652.1,1766,965,1704,1277.9c-28,141.4-56.3,282.8-83.9,424.4
		c-15.2,77.8-108.7,114.9-171.6,66.9c-228.4-174.5-456.5-349.3-684.7-524c-2.9-2.2-5.6-4.8-9.9-8.6c14.7-13.3,28.8-26.2,42.9-38.9
		c269.4-242.5,538.8-485,808-727.8c11.4-10.3,22.1-22.4,29.8-35.5c9.8-16.6,0.8-29.6-18.5-25.7c-17.2,3.5-34.6,10.8-49.5,20.2
		c-130,81.8-259.5,164.4-389.2,246.8c-223,141.6-446,283.1-668.8,425.2c-13,8.3-23.7,9.2-38,4.3c-129.3-44-258.9-87.4-388.4-131
		c-36.9-12.4-67-32.9-82.4-70.4c0-8.8,0-17.5,0-26.3c16.1-30.4,43.1-47.3,73.9-59.4c550.5-216,1100.9-432,1651.5-647.7
		c35.9-14.1,72.3-27.8,109.6-37.1c44.7-11.2,68,1.6,85,39.1C1920,181.2,1920,189.9,1920,198.7z"/>
</g>
</svg>
