<?xml version="1.0" encoding="utf-8"?>
<!-- Generator: Adobe Illustrator 27.9.0, SVG Export Plug-In . SVG Version: 6.00 Build 0)  -->
<svg version="1.1" id="Layer_1" xmlns="http://www.w3.org/2000/svg" xmlns:xlink="http://www.w3.org/1999/xlink" x="0px" y="0px"
	 viewBox="0 0 1920 1920" style="enable-background:new 0 0 1920 1920;" xml:space="preserve">
<g>
	<path d="M0,1740C0,1220,0,700,0,180c1.1-2.8,2.8-5.4,3.4-8.3c10.4-57.5,38.9-104.4,88.2-135C118.3,20.1,150.3,12,180,0
		c520,0,1040,0,1560,0c3.4,1.2,6.7,2.9,10.2,3.6c61.4,12.3,109.7,44.3,140.1,98.9c13.3,23.9,20,51.6,29.7,77.5c0,520,0,1040,0,1560
		c-1.2,3.4-2.9,6.7-3.6,10.1c-12.8,63.5-46.7,112.4-103.7,143.1c-22.5,12.1-48.4,18-72.7,26.7c-520,0-1040,0-1560,0
		c-3.4-1.2-6.7-2.9-10.2-3.6c-60.6-12.2-108.7-43.6-139.2-97.3C16.7,1794.8,10,1766.5,0,1740z M306.6,290.9
		c6.2,9.6,10.1,15.9,14.2,21.9C481.4,546.4,641.7,780.3,803,1013.5c11.6,16.8,10.1,25.8-2.6,40.5
		c-158.2,182.8-315.8,366.3-473.5,549.5c-6.1,7.1-12.2,14.4-20.6,24.4c38.7,0,72.4,0.5,106.1-0.5c6.2-0.2,13.7-5.3,18-10.3
		c109.4-126.7,218.5-253.8,327.7-380.7c36.2-42.1,72.5-84.1,109.7-127.2c5.2,7.4,9.5,13.4,13.7,19.5
		c111.1,161.6,222.2,323.2,332.9,485c7.1,10.4,14.4,14.6,27.2,14.5c117.5-0.5,235-0.3,352.4-0.3c5.6,0,11.3,0,20.1,0
		c-178.3-259.5-353.9-515.1-529.6-770.8c162.1-188.4,322.8-375.3,487-566.3c-36.3,0-67.2,0.5-98.1-0.3c-12.4-0.3-20.6,3.7-28.7,13.2
		c-105.2,122.9-210.9,245.5-316.4,368.2c-31.3,36.4-62.7,72.7-95,110.3c-6.8-9.8-12.6-17.9-18.2-26.1
		c-102.9-149.8-206-299.4-308.5-449.5c-8-11.7-16.2-16.2-30.3-16.1c-116.2,0.6-232.5,0.3-348.7,0.3
		C322,290.9,316.5,290.9,306.6,290.9z"/>
	<path d="M1455.4,1545.1c-57.8,0-112.2,0.5-166.5-0.6c-6.7-0.1-15.2-7.3-19.5-13.5c-106.6-151.7-212.8-303.8-319.1-455.8
		C792.5,849.5,634.7,623.8,477,398.1c-3.8-5.5-7.4-11.2-12.4-18.9c7.4-0.5,12.6-1.1,17.9-1.1c46.2-0.1,92.5,0.5,138.7-0.4
		c14.1-0.3,22.3,4.2,30.4,15.8c213.2,305.8,426.9,611.2,640.5,916.8c50.4,72.2,100.9,144.3,151.3,216.5
		C1446.9,1531.8,1450.1,1537,1455.4,1545.1z"/>
</g>
</svg>
