<?xml version="1.0" encoding="utf-8"?>
<!-- Generator: Adobe Illustrator 27.9.0, SVG Export Plug-In . SVG Version: 6.00 Build 0)  -->
<svg version="1.1" id="Layer_1" xmlns="http://www.w3.org/2000/svg" xmlns:xlink="http://www.w3.org/1999/xlink" x="0px" y="0px"
	 viewBox="0 0 1920 1920" style="enable-background:new 0 0 1920 1920;" xml:space="preserve">
<g>
	<path d="M1728.4,802.5c0,118.4-0.8,236.9,0.5,355.3c0.4,33.4-7.5,62.9-23.2,91.9c-86.9,160.5-199.7,300.3-335.5,421.7
		c-109.8,98.1-231.6,177.7-365.9,238.4c-30.2,13.7-58.3,13.5-88.2-0.2c-316.8-145.5-549.6-378.5-712.5-684
		c-7.8-14.7-11.9-33.3-12-50c-0.7-249.3-0.5-498.7-0.5-748c0-49,16.3-69.2,63.7-82.9c137.6-40,265.2-103.2,389.6-172.9
		c87.9-49.3,174-101.8,259.8-154.7c36.6-22.6,68.2-23.1,105.2,0.7c175.8,113.4,356.6,217.6,552.1,294c33.2,13,67.4,24,101.7,33.9
		c50.6,14.7,65.2,32.7,65.2,86.1C1728.4,555.4,1728.4,679,1728.4,802.5z M332.3,472c0.1-0.4-0.5,1-0.5,2.4
		c-0.1,228.8-0.2,457.5,0,686.3c0,6.9,2.3,14.5,5.7,20.5c143.7,254.6,340.1,455,603.7,586.4c16,8,28.5,8.1,44.6,0.1
		c263.5-131.6,459.9-332,603.5-586.7c3.7-6.6,5.7-15.1,5.7-22.7c0.3-224.4,0.1-448.8,0.6-673.1c0-14-5.5-18.3-17.4-22.6
		c-42.5-15.3-85.2-30.7-126.7-48.5c-164.1-70.5-318.6-159.2-469.7-253.7c-13.8-8.6-23.2-8.5-37,0.1
		c-136.1,85.5-275.3,165.7-421.8,232.2C460.9,421.1,396.7,445.4,332.3,472z"/>
	<path d="M895.3,1058.3c10.4-12.6,18.1-23.4,27.3-32.6c88.7-89,177.5-177.9,266.6-266.6c24.3-24.2,53-29.9,80-17.2
		c27.5,12.9,45.7,41.6,40.4,71c-2.7,14.9-10.1,31.4-20.6,42c-114.5,115.9-229.7,231.1-345.3,345.9c-31.3,31.1-69.7,30.6-101.1-0.4
		c-68-67.3-135.6-135.1-203.1-203c-30.4-30.6-31.3-70.6-3.2-99.5c28.8-29.7,69.8-29.7,101.1,1.3
		C788.7,950.2,839.3,1001.8,895.3,1058.3z"/>
</g>
</svg>
