<?xml version="1.0" encoding="utf-8"?>
<!-- Generator: Adobe Illustrator 27.9.0, SVG Export Plug-In . SVG Version: 6.00 Build 0)  -->
<svg version="1.1" id="Layer_1" xmlns="http://www.w3.org/2000/svg" xmlns:xlink="http://www.w3.org/1999/xlink" x="0px" y="0px"
	 viewBox="0 0 1920 1920" style="enable-background:new 0 0 1920 1920;" xml:space="preserve">
<style type="text/css">
	.st0{fill:#CC623B;}
	.st1{fill:#CC613A;}
	.st2{fill:#CC633C;}
	.st3{fill:#C1121F;}
</style>
<g>
	<g>
		<path class="st0" d="M1012.7,404.3c163.5-45.7,319.3-34.8,461.5,67c83.7,59.9,133.4,144.2,167.4,239.2c0.2,0.6,0.3,1.3,0.4,1.9
			c3.3,12.2,16.1,28.6,8.8,35.1c-10.7,9.6-29.6,4.4-44.6,1.2c-44.9-9.6-77.8-38.2-107.2-71.3c-46.1-52-92.2-104.1-147.2-147.1
			C1252.4,452.4,1139.5,410.3,1012.7,404.3z"/>
		<path class="st1" d="M1183.1,263.9c34.8-5.6,69.9-9.4,105.1-7.8c109,5,211.5,33.2,305.3,89.8c52,31.4,99,69.1,141.4,112.7
			c12.5,12.9,13.6,28.8,16,44.2c9.9,63.3,6.2,125.5-20.4,184.9c-6.3,14.1-14.4,27-27.8,39.7c-37.1-121.3-99.8-224.9-194.4-308.2
			C1414.6,336.6,1308.7,280.2,1183.1,263.9z"/>
		<path class="st0" d="M1423.2,1535.5c31.6-18.4,60.9-38.8,88.1-62.3c104-89.9,175-200.7,209.5-334c3.9-15.2,10.9-16.6,22.7-14.5
			c30.1,5.4,53.7,31.2,57.2,62.1c4.1,36.3-6.7,69.1-26.3,98.4c-84.8,126.8-202.9,208.3-348.1,252
			C1425.9,1537.5,1425.3,1536.8,1423.2,1535.5z"/>
		<path class="st0" d="M1799,533.5c31.4,41.5,52.6,82.1,70.4,124.6c16.7,39.7,27.8,81.2,37.5,123c2.5,10.6,0.1,18-7.4,25.9
			c-41.5,43.9-91.4,74.2-148.1,94.2c-8.5,3-12.8,3.7-13.5-7.3c-2-34-9.2-67.3-15.7-100.6c-1.8-9-0.5-14.8,7.2-21
			c48.6-39.2,70.2-92.1,73.8-152.9C1804.8,592.6,1805.7,565.7,1799,533.5z"/>
		<path class="st0" d="M1917.3,849.8c11.8,96.1-15.6,235.3-65.6,335.4c-4-20-6-38.5-13.6-55.6c-16.8-37.4-46-57.7-85.8-62.8
			c-11.6-1.5-16-4.8-13.9-16.6c4.3-24.2,4-48.7,3.7-73.1c-0.1-10.2,4.3-15.1,13.1-18.4C1816.7,935.5,1871.7,902.3,1917.3,849.8z"/>
		<path class="st0" d="M1547.8,791.8c37.9,16.8,74.5,24.1,112.9,17.7c9.2-1.5,10.7,1.7,12.1,9.4c5,28.4,10.1,56.7,12.3,85.5
			c0.6,8.2,0,13.2-9.3,15.3c-28.1,6.4-56.4,11.2-85.1,14.3c-7.7,0.8-10.2-1.7-11-9C1574.8,880.4,1562.8,837.4,1547.8,791.8z"/>
		<path class="st2" d="M1538.5,1370.5c21.4-63.2,37.3-126.9,44.6-192.7c1-8.8,6.4-11.8,12.5-15.3c21.1-12.3,43.7-21.3,70-29.5
			C1643.6,1224.8,1604.4,1304.8,1538.5,1370.5z"/>
		<path class="st0" d="M1591.7,1108.5c-2.2-38.5,1.8-75.6-2.8-112.4c-0.9-6.9,3-7.1,7.7-7.7c26.6-3.5,53.2-7,79.8-10.8
			c8.1-1.2,12,1.1,11.1,10c-2.6,26.1-4.9,52.2-7.3,78.4c-0.5,5.2-3.3,7.5-8.2,9.1C1644.6,1083.7,1618.4,1095,1591.7,1108.5z"/>
	</g>
	<g>
		<path class="st3" d="M606.5,1478.9c36.6,48.1,77.5,86,128,112.8c5.2,2.7,6.6,7,8,12.2c10.8,41.4,21.9,82.7,32.9,124.1
			c2.5,9.3,0.3,17.4-5.5,25.2c-17.1,23.1-52,31.6-77.9,18.7c-8-4-12.9-10.2-15.2-18.8c-1.3-4.9-2.8-9.8-4.1-14.8
			C650.9,1653.1,629.2,1567.8,606.5,1478.9z"/>
		<path class="st3" d="M813.5,536.6c-24-131.3-93-235.1-200.4-312.7c-84.5-61-180.3-91.8-284.5-78.9
			c-118,14.6-210.9,75.1-266.5,180.7c-90.4,171.7-80.1,343.2,17.1,509.5c55.3,94.7,136.6,164.1,226.3,225.1
			c58.7,39.9,110.7,87.7,154.9,143.8c20.9,26.6,39.4,54.9,60.9,86.4c-3.2-17.5-8.2-30.8-7.5-43.7c4-71-33.3-119.2-85.3-159.9
			c-3-2.4-5.7-5.2-8.7-7.7c-8.4-7.3-16.8-14.5-27.9-24c41.4,1.1,77.6-6.9,113.7-15.6c5.8-1.4,12-2.4,13.8-8.8
			c5.6-20.3,10.8-40.8,16.1-61.2c-16.8,4.5-32.5,7.8-47.6,13.1c-10.9,3.8-14.2,0.6-17.4-9.6c-12.5-39.6-25.7-79-39.5-118.2
			c-3.4-9.6-2.5-13.5,7.5-16.7c20.7-6.6,41.1-14.2,61.3-22.2c9.2-3.7,12.7-1.9,16,7.6c12,34.7,25.1,69.1,38.6,105.8
			c10.5-17.1,16.7-30.9,7.5-49.5c-9.8-19.9-15-42.1-23.7-62.7c-4.4-10.6-1.6-14.1,8.3-17.2c18.3-5.8,36.1-12.8,54.1-19.4
			c25.6-9.4,25.6-9.5,38.5,12.5c6.3-7.7,11.1-16.8,18.7-22.1c7-5-11.7-8.7,0.8-11.3c23.2-4.9,33-27.1,51.1-39.1
			c-9.7,1.4-18.8,4-27.7,7c-9.7,3.3-19.4,6.6-28.8,10.5c-7.1,2.9-10.6,3.1-13.3-6.1c-5-17.1-12.4-33.6-18.6-50.3
			c-13.6-36.6-13.6-36.8,22.3-50.3c38.5-14.5,77.2-28.6,116.3-43.1c2.6,35.8-0.9,69.4-7.3,104c20.8-11.3,39.7-21.9,59-31.8
			c8.8-4.5,10.8-11.2,11-20.3C823.6,605.2,819.7,570.6,813.5,536.6z M676.4,370.5c17.3,23.9,33.1,48.6,45.5,76.2
			C670.3,466,621,484,572.2,503.1c-11.4,4.4-16.5,3.9-20.3-8.9c-6.7-22.7-14.9-44.9-23.2-67.1c-3-7.9-3.9-11.1,6.1-14.6
			c41.6-14.7,82.8-30.5,123.9-46.6C666.8,362.7,671.3,363.5,676.4,370.5z M412,467.2c-3.4-8.4-0.3-9.3,6.1-11.6
			c25.2-9.1,50.2-18.8,75.2-28.3c5.7-2.2,10-4.7,12.9,4.4c8.4,26.1,17.9,51.9,27.1,77.8c0.4,1.2,1.1,2.3,1.7,3.6
			c0.6,5.8-4.7,5.1-7.8,6.3c-24.9,9.8-50,19.4-75,28.9c-5.6,2.1-10.1,3.4-12.9-5.3C431.1,517.4,422.1,492.1,412,467.2z M410.7,562.9
			c-21.6,7.8-43,16.1-64.5,24c-5.2,1.9-8.9,2.1-11.3-5.2c-8.3-25.4-17.6-50.5-26.8-75.6c-1.4-3.7-3.9-7.6,1.3-9.5
			c24.5-9.1,49.1-17.8,75.6-27.4c3.1,0.1,3.3,4.5,4.5,7.7c9.1,24.5,17.9,49,27.2,73.4C419.3,557.2,417.4,560.5,410.7,562.9z
			 M485.4,405.6c-24.5,8.9-49.1,17.9-73.3,27.5c-8.1,3.2-11.7,2.5-14.7-6.5c-8-24.2-17.5-47.9-25.9-72c-1.1-3.2-5.8-8.3,1.4-11
			c28.7-10.7,57.3-21.3,86.8-32.2c5.3-0.4,6,3.9,7.4,8.1c8.2,24.1,16.1,48.4,25.2,72.2C495.5,400.3,492.6,403,485.4,405.6z
			 M375.9,439.2c2.7,7.1,0.6,8.2-5.4,10.3c-21.6,7.5-43.2,15.3-64.4,24c-6.8,2.8-9.4,1-11.5-4.6c-9.6-26.3-18.9-52.7-28.6-79
			c-1.4-3.7-3.6-7.7,1.2-9.5c24.5-8.9,49.2-17.4,73.8-26.1c7.3-2.7,6.4,4.1,7.6,7.4C357.8,387.5,366.3,413.6,375.9,439.2z
			 M274.7,485.3c0.3,0.9-4,1-7.7,2.4c-26.3,10-52.5,20.1-78.6,30.6c-7,2.8-9.3,2.1-11.8-5.8c-8.4-26.2-17.8-52-27.6-77.7
			c-2.5-6.5-1.9-8.6,4.5-10.9c27-9.8,53.9-20.1,80.7-30.4c3.6-1.4,6.6-3.9,8.7,2.1C252.8,424,263,452.3,274.7,485.3z M197.6,539.1
			c25.1-9.3,50-19.2,75.1-28.6c3.4-1.2,8.3-7.1,10.9,0.2c10,27.5,19.5,55.3,29.4,83.4c1.2,6.4-5.1,6.4-8.5,7.7
			c-25.6,9.8-51.5,18.8-77.1,28.6c-6.7,2.6-9.4,2.8-11.9-5.4c-7.6-24.4-16.1-48.4-25.1-72.3C187,544,190.6,541.7,197.6,539.1z
			 M236.9,651.8c25.2-9.1,50.2-18.8,75.3-28.2c5.6-2.1,10.1-4.1,13,4.7c8.7,26,18.5,51.6,27.9,77.3c0.4,1.2,1.1,2.3,1.6,3.5
			c-0.1,5.4-4.5,5.2-8,6.4c-25.8,9.3-51.8,18.2-77.2,28.5c-9.2,3.7-11.2-0.6-13.5-7.2c-8.4-24.1-16.1-48.4-25.7-72
			C226.6,655.7,229.9,654.4,236.9,651.8z M276.2,765.8c27.1-9.5,54.2-18.8,81-29c7.9-3,8,0.6,9.8,6.1c8.6,26,17.9,51.8,26.6,77.8
			c1,3.1,7.4,7.6-0.8,10.6c-28.8,10.4-57.6,20.9-83,30.1c-10.3,2.3-10.6-3.8-11.9-7.3c-9.3-25.1-18-50.4-27.3-75.5
			C268.2,771.9,269.3,768.2,276.2,765.8z M375.7,695.2c-9.2-24.5-17.3-49.5-26.9-73.8c-4.3-10.9,3.3-11.9,9.6-14.2
			c22.7-8.5,45.5-16.8,69.6-25.6c10.5,27.7,20.7,54.5,30.7,81.4c2,5.3,4.2,10.5-4.4,13.5c-22.9,7.9-45.7,16.3-68.2,25.4
			C377.7,705.3,377.1,699.1,375.7,695.2z M452,581.1c-1-2.7-4.6-6.9,1.6-9.2c28.7-10.7,57.3-21.5,88.3-33.2c3.7-1.1,3.5,4.9,4.5,7.4
			c9.9,25.5,19,51.4,29.1,76.8c3.2,8.2-0.4,9.2-6.6,11.4c-25.8,9-51.7,18.2-77.1,28.3c-6.8,2.7-8.7,1.4-10.9-4.5
			C471.4,632.3,461.5,606.8,452,581.1z M580.1,276.1c27.5,18.3,50.9,40.9,73.1,67.2c-43.6,16.3-86.1,31.7-128.2,48.3
			c-8.5,3.4-8.7-2-10.1-6c-8.8-24.7-16.7-49.7-26-74.2c-3-7.8-0.6-10.4,5.7-12.7c23.4-8.7,46.8-17.2,70-26.4
			C571.3,269.6,575.4,273,580.1,276.1z M546.3,254.9c-21.8,8.3-41.7,15.7-61.4,23.3c-7.3,2.8-8.3-2-10.3-7.2
			c-6.8-17.8-14.2-35.4-22.3-55.4C486.3,223.1,515.5,236.7,546.3,254.9z M414.9,208.3c7.4,1.2,11.2,3.9,13.7,10.7
			c7.5,20.4,15.1,40.8,23.8,60.6c3.4,7.7,1.4,9.4-5.5,11.9c-25.9,9.2-51.6,18.9-77.3,28.8c-7,2.7-10.6,0.7-13.1-6
			c-13.2-34.5-26.6-69-40.2-104.1C349.7,205.3,382.1,202.9,414.9,208.3z M219.6,247.7c20.5-11.9,41.7-22.2,64.3-29.3
			c5-1.6,10.1-3.6,12.8,3.4c13.1,34.5,26.2,69.1,39.3,103.6c2.1,6.8-3.3,7.2-7.3,8.7c-21.5,8-43.2,15.4-64.4,24.2
			c-8.5,3.5-10.2-1.4-12.4-6.7c-12.1-30.1-23.8-60.5-36.5-90.4C212.4,254.1,213.4,251.3,219.6,247.7z M146.3,313.5
			c13.6-16.8,29.5-31.2,46.9-47.3c12.9,33,24.6,63.8,37.1,94.2c3.6,8.9-1.1,11.1-7.6,13.5c-24.4,9.1-48.9,18.2-73.3,27.6
			c-7.5,2.9-11.9,1.4-13.9-6.4c-0.2-0.6-0.3-1.3-0.5-1.9C116.7,350,116.7,350,146.3,313.5z M102.7,376.5c15.3,36,15.3,36-16.9,47.4
			C87.4,406.9,95.2,393,102.7,376.5z M74.9,460.9c3-17.4,19-13.8,29.1-19.8c15.5-9.2,23.6-5.8,28.2,13c5.5,22.1,14.5,43.5,22.8,64.8
			c2.5,6.5,3.5,10.6-4.1,13.2c-28.2,9.8-56.3,19.6-85.4,29.7C63.2,526.4,69.3,493.7,74.9,460.9z M76.6,675.7
			c-5.7-23.7-9.2-47.7-11.9-75.6c-3.4-10.3,4.4-15.5,16.3-19.3c24.3-7.8,48.4-16.1,72.2-25.2c9.4-3.6,14.3-5.2,17.7,7.3
			c6.2,22.7,14.3,45,22.5,67.1c3.1,8.3,2.9,12.3-6.3,15.4c-33.2,11.4-66.2,23.2-99,35.7C80.6,684,78.5,683.7,76.6,675.7z M123.4,790
			c-12.7-25.1-26.7-49.5-36.1-76.2c-2.1-5.9-1.1-8,4-9.8c35.5-12.7,70.9-25.4,106.4-38c1.2-0.4,2.5-0.7,3.7-1
			c5.4-1.2,5.9,2.6,7.2,6.5c8.7,24.7,17.5,49.3,26.7,73.8c2.8,7.5,2.2,10.6-6.3,13.4c-32,10.9-63.7,22.7-95.3,34.8
			C128.2,795.5,125.8,794.9,123.4,790z M169.3,858.5c-10.2-13.1-19.6-26.9-30.9-42.6c34.5-12.4,67-23.5,99.1-35.9
			c7.7-2.9,10.1-0.9,12.3,5.4c9,25.9,18,51.8,27,77.7c2,5.7,1.8,9.4-5.5,11.1c-7.4,1.7-14.5,4.8-21.7,7.4
			C201,899.1,200.9,899.2,169.3,858.5z M222.1,915.3c20.5-7,39.5-13.2,58.2-20.1c5-1.8,7-0.5,8.5,3.8c8.2,23.9,16.4,47.8,25.6,74.4
			C279.4,958.2,251.5,938.3,222.1,915.3z M451.8,988.7c-35,7.8-67.8,4.2-100.6-3.3c-7.1-1.6-10.2-5.4-12.5-12.5
			c-8.1-25.6-16.6-51.1-26.4-76.1c-4-10.3-0.5-12.8,8.1-15.7c27.8-9.5,55.4-19.7,83.8-29.9C419.9,896.2,435.5,941.5,451.8,988.7z
			 M499.3,792.2c-25,9.4-50.3,18.3-74.9,27.2c-7.3,0.7-6.6-4.6-8-8.7c-8.7-25.3-17.1-50.7-26.8-75.6c-3.8-9.6-0.2-11.5,7.6-14
			c21.2-6.8,42.5-13.6,63-22.3c9.4-4,10.5,0.1,12.8,6.6c9,25.2,18.4,50.2,27.4,75.4C501.7,784.5,505.8,789.8,499.3,792.2z
			 M621,745.3c1,5.1-4.3,4.7-7.4,5.8c-25.7,9.6-51.5,18.9-77.2,28.4c-6.7,2.5-10.1,1.1-12.7-6.2c-9.2-26.5-19.2-52.7-29-79
			c-2.2-5.9-0.9-8.7,5.8-11c26-8.8,51.7-18.4,77.4-27.9c3.6-1.3,7.5-4,9.6,1.3C598.7,685.9,609.6,715.2,621,745.3z M747.4,568.7
			c-45.7,16.4-91.2,33.1-136.5,50.5c-8.4,3.2-12.3,3.1-15.5-5.8c-8.8-24.6-17.9-49.2-27.7-73.4c-3.3-8.2-0.1-10.9,6.6-13.4
			c49.1-18.3,98.1-36.7,147.1-55c4.4-1.7,9.1-6.1,12,2.3c9.5,27.9,17.7,56,22.5,85.1C757.2,565.7,752.9,566.7,747.4,568.7z"/>
	</g>
	<g>
		<path class="st3" d="M618.1,912.2c6.2,7.1-0.8,12.1-3.4,17c-44.6,83.4-56.5,173.3-50.4,266c2.3,34.3,9.9,68.1,21,101
			c2.2,6.5,9.1,13.5,2.2,21.3c-23.9-55.9-31.1-114.9-30.6-174.8C557.7,1061,577.1,983.6,618.1,912.2z"/>
		<g>
			<path class="st3" d="M881.7,1185.2c-5.8-5.1-10.9-6.7-19-4.1c-34.6,11.1-69.4,21.8-104.5,31.2c-14.5,3.9-19.5,12.8-20.9,26
				c-2.7,24.9-5,49.8-4,82.6c1.9,16.6-7.4,42,9.7,64.8c26.9,35.8,59,65.7,96.1,90.6c7.8,5.2,15.5,5.5,23.7,3.5
				c32.9-8.2,65.2-18.2,96.5-31.2c9.7-4,17.5-9.6,18.9-21.9c4.4-40.1,9.5-80.1,14.5-120.2c1-8.2-1.4-15-7.2-20.9
				C951.8,1251.3,917.8,1217.2,881.7,1185.2z"/>
			<path class="st3" d="M1155.6,984.5c27-22.7,54.6-44.8,82.1-66.9c9.8-7.9,12.1-17,7.6-28.9c-10.4-28.2-21.1-56.2-34.1-83.3
				c-5-10.6-12.4-16.5-23-21.3c-51.9-23.1-107-29.9-161.9-33.5c-10.3,0.1-19.3-1.6-27.6,6.6c-26.5,26.2-52.8,52.6-76.9,81.1
				c-7.2,8.6-8.3,15.8-1.7,25.7c19.3,28.7,37.7,58,56.1,87.3c4.4,7,9.6,10.3,18.1,11.9c45.4,8,90.6,17.2,135.9,25.7
				C1138.9,990.4,1147.4,991.4,1155.6,984.5z"/>
			<path class="st3" d="M1301.7,1308.4c-38.9-24.8-77.4-50-116-75.3c-6-4-11-4-17.5-0.5c-39.9,21.6-80,42.8-120.2,63.9
				c-8.8,4.6-12.4,10.6-13.5,21c-3.8,37.6-8.7,75.1-14.3,112.5c-1.9,12.9,3,20.8,12.5,27.7c33.3,24.2,69.4,43.3,106.3,61.3
				c6.5,3.2,11.8,2.1,18.1-0.1c42.1-14.5,80.6-35.6,115.8-62.9c7-5.5,14.7-11,16.9-20.4c8.1-33.6,17.1-67,20.1-98.2
				C1309.9,1324.6,1312.1,1315,1301.7,1308.4z"/>
			<path class="st3" d="M853.1,1140.5c8.3-2.5,13.2-7.6,16.6-14.7c22-46.1,43.6-92.4,65.7-138.5c4.4-9.2,3.7-17.1-1.5-25.3
				c-17-26.4-33.8-52.9-50.7-79.3c-4.5-7.1-10.1-10.9-19.2-8.5c-38.9,10.2-78,20-117,30c-6.9,1.8-13.5,4-18,10.2
				c-36.1,49.5-58.5,104.6-68.8,162.3c-0.4,7.6-0.4,12.4,2.6,17.2c17.4,28.6,37.7,54.9,59.8,80c4.5,5.2,9.3,5.1,15.5,3.1
				C776.3,1164.6,814.6,1152.3,853.1,1140.5z"/>
			<path class="st3" d="M1267.9,947.8c-26.4,21.5-53.1,42.6-79.5,64.1c-5.5,4.4-10.5,9.3-9.5,17.7c5.7,49.1,11.4,98.2,16.5,147.4
				c1.3,12.1,7,19.6,17,25.9c34.8,21.8,69.5,43.7,103.4,66.7c10.7,7.3,18.6,6.3,27.5-1c19.7-16.5,38.9-33.7,59.3-49.3
				c25.1-19.2,37.9-42.7,31.3-69.7c0-25-0.4-45.1-5.2-64.4c-5.1-20.8-3-46.9-21-60.4c-37.9-28.4-76.9-55.7-118.7-78.5
				C1281.2,942.1,1274.9,942.1,1267.9,947.8z"/>
			<path class="st3" d="M1508.6,995.2c-69.5-228.4-309.4-372.2-546.9-330.5c-153.5,27-266.6,112.9-343.6,247.5
				c-0.4,10.8-7.2,19-11.6,28.1c-48.6,102-58.3,208.1-34.6,317.9c4.3,20,12.5,39,15.5,59.3c81.1,220.8,319.5,360.3,558.2,305.7
				C1437.4,1556.5,1593.7,1274.7,1508.6,995.2z M1045.3,1580.5c-245.2,1.7-437-205.5-432-431.3c-1.5-247.5,195.4-434.1,419.2-437
				c252.8-3.2,445.3,188.2,445.7,438.9C1478.6,1383.2,1280.1,1578.9,1045.3,1580.5z"/>
		</g>
	</g>
</g>
</svg>
